# xmcd
#
# Track frame offsets:
#	150
#	15347
#	29448
#	41340
#	53950
#	67153
#
# Disc length: 1120 seconds
#
# Revision: 0
# Processed by: cddbd v1.4PL0 Copyright (c) Steve Scherf et al.
# Submitted via: gmmusic 1.1.9
#
DISCID=48045e06
DTITLE=Bluenote Boogie - premiére edition
DYEAR=1993
DGENRE=Blues
TTITLE0=I love that Rock'n'Roll
TTITLE1=Boogie on Elise
TTITLE2=Sudden Comfort
TTITLE3=The different Prelude
TTITLE4=Icebreaker
TTITLE5=Special Track: We are the People
EXTD=
EXTT0=
EXTT1=
EXTT2=
EXTT3=
EXTT4=
EXTT5=
PLAYORDER=
